<svg id="Layer_1" data-name="Layer 1" xmlns="http://www.w3.org/2000/svg" viewBox="0 0 900 900"><title>cheree logo Black</title><path d="M755.55,635.32c-8.26-14.43-21.64-2.47-31.31,5.81.79-1.68,1.55-3.38,2.26-5.11a50.83,50.83,0,0,0,3.32-12.36c7.59-16.44,18.25-32.23,36.74-36.78,7.31-1.79-4.43-23.21-5.46-25.59a2,2,0,0,0-2.43-1.35,35.2,35.2,0,0,0-6.86,2.56c1.1-1.56,2.18-3.11,3.25-4.61,8.08-11.38,18.55-28,20.2-42.2.8-6.86-4.6-16.21-11.85-18-2-.48-2.54.25-3.69,1.65-4.56,5.58-8,14.37-11.42,21.42-.91,1.2-1.76,2.43-2.59,3.68,2.14-5.36,4.06-10.71,5.91-15.71,4.33-11.61,3.73-24.3,8.63-36.05,6-14.34,17.63-29.17,31.25-36.92,4.8-2.74,1.58-7.5-.74-10.3-2.68-3.22-3.76-12.63-10.14-11-18.88,4.88-32.82,18.42-40.53,35.79-.08-.19-.2-.35-.27-.55-1.54-3.69-3.11-7.46-6.88-9.25-1.5-.71-2.75.1-3.77,1.14-4.74,4.86-10.22,8.33-16,11.54,3.92-8.68,7.46-17.41,9.55-27.24,1.69-8,6.72-27.38,1-34.85-2.54-3.33-11.73-8.76-15.94-7.11-1.67.65-2.33,2.95-2.57,4.45-1.44,8.52-4.3,15.33-8.24,22.58.63-4.78,1.34-9.51,1.78-13.94,1.71-17.26,9-30.39,16.16-45.67.71-1.54-.76-3.27-2.24-3.38-6.78-.48-18.23-10.17-23.78-3.65-2.35,2.76-3.41,7.17-4.43,10.53-2.44,8-6.81,15.85-11.25,23-.51-13.61-3-27.31-7.8-39-3-7.25-9.1-19.43-15.54-23.9-.81-.57-2.09-1.7-3.25-1.12-5.06,2.55-9.66,1.92-15,.77-2-.44-2.66,1.7-2.21,3.26,1.64,5.66,5.19,10.22,6.67,16a58.44,58.44,0,0,1,1.63,11A105.89,105.89,0,0,1,617.42,321a161.3,161.3,0,0,1-11-20.15c-1.6-7.06-1.79-14.45-1.48-22,1.59-38.1,3-76.21,4.5-114.31.29-7.48.68-14.94,1-22.29,18.22-5.6,26.43-15,25.74-29.1-.63-13-9.83-23.78-22.25-26-13.4-2.37-25.32,3.92-30.83,16.26-5.65,12.66-1.2,25.12,12.88,35.86-7.25,13.74-14.75,27.37-21.7,41.28-11.76,23.52-23.16,47.23-34.79,70.82-.53,1.08-1.9,2.41-2.87,2.4s-2.08-1.54-2.56-2.65q-23.22-53.91-46.29-107.87c-3.3-7.74-6.39-15.56-9.58-23.35h0a17.79,17.79,0,0,0,3.08-1.17c15.82-9.44,20.6-30.74,10.41-46.25a33,33,0,1,0-53.57,38.54c5.6,7,12.94,11,22.18,12.52q-1.81,74.34-3.63,148.19c-3.88-1.19-7.75-2.27-11.54-3.18a2.07,2.07,0,0,0-2.47,2c-.08.62-.19,1.21-.32,1.78q-47.53-68.1-95.12-136.15-7.75-11.1-15.48-22.2c20.58-16.48,19.42-40.36,10.06-54.51a39.76,39.76,0,0,0-71.92,31,38.49,38.49,0,0,0,14.49,22.42c10.44,8,22.25,9.81,35.11,6.86q23.64,102.67,47.11,204.59l-.76.33L242.17,222.89c7.79-20.94,5.27-34.84-7.95-44.6A32.79,32.79,0,0,0,184,216.68a32.48,32.48,0,0,0,13.7,15.95c9.3,5.51,19.12,5.81,29.28,2.29l63.92,131.53-131.1-33.54c2.09-16-4.11-27.71-17-32.63a27.22,27.22,0,0,0-29.47,44.1c10,10.72,21.9,11.09,39.44,1.15.69.48,1.47.94,2.17,1.5q60.69,48,121.31,96.16c-2.23,3.19-4.18,6.45-3.52,10.16.85,4.71,7.73,8.76,11,11.51,1.51,1.27,3.07,2.51,4.66,3.71.29.92.57,1.84.86,2.76.64,2,2,3.67,2.92,5.24,1.2-1,2.35-2,3.53-3A63,63,0,0,0,306.8,479c.93.35,1.87.62,2.8.93-4.42,1.11-8.3,3.56-13.26,3.8-3.4.18-9.28.13-11.48,3.47-1.89,2.85,1.93,10.71,2.58,12.92,1.51,5.2,4.68,11.52,6.7,17.8-5.57.11-11,.71-16.69.49-9.84-.39-17.25-4.72-26-8.54-1.49-.64-2.63.46-2.48,2,.53,5.1-.67,10.94-1.07,16.06-.17,2-1.74,6-.82,8.36,1.82,4.65,8.21,6.75,14,8.21.76,11.51,2.18,53.19,13.57,47.5,5.35-2.67,9.57-6.88,15-9.37.92-.42,1.91-.68,2.86-1-.82,4.4-1.07,9.22-1.54,13.51-.42,3.68-1.07,8-.69,11.8-16.83-4.53-31.9-14.1-38.61-30.17a2,2,0,0,0-2.92-1.14c-6.36,4.17-14.13,8.78-17.38,15.91a2.59,2.59,0,0,0,1,2.93.93.93,0,0,0,0,.23c5.23,14.93,26.66,24.45,39.23,31.76,8.73,5.07,18.26,9.4,28.1,11a113.05,113.05,0,0,1-15.19.37c-11.28-.55-23.36-4.08-34.49-3.24-1.3.09-2.62,1.42-2.16,2.77,2.43,7.23,8.84,17.24,14.56,22.24,1.95,1.72,6.91,1,9.06,1.18,6.17.45,12.38.68,18.5,1.52a262,262,0,0,1,45,10.2,149.07,149.07,0,0,1,16.47,6.83c-16.68,3.79-31.92,2.68-48.42-3.12a2.85,2.85,0,0,0-3.84,3.09c1.47,6.89,2.08,17.58,7.72,22.59-9.72-2.5-17.82-7.43-26.74-12A2.61,2.61,0,0,0,277,691.5c-1.08,4.81-2,9.3-5.49,13.24a2,2,0,0,0,.12,3.17,185.07,185.07,0,0,0,24.07,14.58,2.52,2.52,0,0,0-2.44,2.28c-.47,8.1,3.49,15.21,4.73,23.08a6.91,6.91,0,0,0,5.57,5.87A90.8,90.8,0,0,0,339.16,752c-12.52,6.28-26.56,9.14-41,7-2.26-.33-4.3,2.34-2.39,4.05,4,3.55,7.42,12,11.5,14.69,3.92,2.54,8.2,1.72,12.76,1.7a152.07,152.07,0,0,0,23.34-1.94,12.27,12.27,0,0,0,3.21,8.71c3.33,3.82,14,2.8,18.35,2.76a142,142,0,0,0,18.8-1.47,109.36,109.36,0,0,0-11.93,5.83c-2.17,1.24-12.54,6.09-11.59,10.21,1.67,7.24,11.64,13.19,16.17,18.26a2.56,2.56,0,0,0,4-.5c8.06-11.41,31-15.72,43.88-17.74a105.61,105.61,0,0,1,31.32-.39,59,59,0,0,1-9.36,6c-5.36,2.69-11.12,3-16.47,5.49-1.46.68-2.68,2.56-1,3.8,4.37,3.27,7.87,6.33,9.26,11.82.32,1.27,2,1.48,3,1.72,7.61,1.92,20.83-1.45,28.25-4,12-4.07,23.95-11.18,34.56-19.72-2.49,8-5.52,16.47-10,23.59-1.87,3-4.5,6.66-5,10.25-1.28,8.47,13.54,10.75,18.36,15.54,1.05,1,3.32,1,4-.52,6.86-15.41,11.95-29.55,23.85-42.17,3.06-3.23,6.15-6.88,9.36-10.49-2.89,7.73-6.16,14.36-11.64,21a6.93,6.93,0,0,0-1.77,3.91c5.21,3.23,10.53,7,16.56,8.21,9.25-1.28,20.2-17.18,25-23.54,6-8,10.29-16.43,14.27-25.08,1.41,6.5,2.38,12.91,1.83,19.69-.12,1.45.09,2.92,1.62,3.58,3.82,1.67,7.69.38,11.49-.88,4.86-1.62,9,.27,13.66,0,5-.28,2.83-7.49,1.66-9.91-5.32-11.06-10.38-21.78-6.34-34.06a51.13,51.13,0,0,1,23.32,16c5.25,6.19,6.37,14.17,10.65,20.72,6.46,9.91,14.18.91,20-5.67,9.28-10.55-3.09-20.81-14.4-27.78C668,773.62,686.3,769.2,705,763c1.89-.63,1.3-3.17.31-4.25-3.1-3.37-6.9-11.16-11.77-12.36-.08,0-.19,0-.28-.05a41.92,41.92,0,0,0,12-10.07c6.61-8.36,14.11-17,18.42-26.79,2.25-5.13-5.32-9.36-8.59-12.3,3.1-4.53,6-9.24,8.73-14,7.34-12.61,11.76-24.72,28.54-25.87C766.6,656.29,760.38,643.76,755.55,635.32ZM673.87,648q-5.5,16.08-20,32.61t-36,30.07a213,213,0,0,1-49.13,22.27,193.82,193.82,0,0,1-58.78,8.73q-38.12,0-66.12-9.18t-47.3-26A124.06,124.06,0,0,1,366,666.58a175,175,0,0,1-15.39-51.66,145.76,145.76,0,0,1,.92-51.43,188.88,188.88,0,0,1,17.68-50.74,216.76,216.76,0,0,1,76-83.11,223.61,223.61,0,0,1,54.41-25,209,209,0,0,1,62.22-9.18,126,126,0,0,1,31.92,3.9,78.79,78.79,0,0,1,26.63,12.4,73.5,73.5,0,0,1,19.74,21.81q8,13.32,11.25,32.6A63.54,63.54,0,0,1,650,493.69,69.64,69.64,0,0,1,639.43,516a54.32,54.32,0,0,1-15.61,14.7q-8.73,5.28-17,5.28a47.58,47.58,0,0,1-15.15-3,87,87,0,0,1-16.76-7.8,67.79,67.79,0,0,1-14-11q-6-6.19-6.89-13.09a9,9,0,0,1,3.22-9,105.08,105.08,0,0,1,10.56-7.58h-.46A65.07,65.07,0,0,0,583.41,471q6.89-8,5.05-19.51-3.21-19.29-30.76-19.29-23,0-41.33,9a111.07,111.07,0,0,0-32.6,24.11,151,151,0,0,0-24.34,34.89A210.44,210.44,0,0,0,443.59,541a213.89,213.89,0,0,0-7.12,42.25,185.37,185.37,0,0,0,1.38,39.49,89.82,89.82,0,0,0,9.64,29.84,82.24,82.24,0,0,0,19.06,23.88,90.9,90.9,0,0,0,27.32,16.07q15.6,6,34.9,6A136.48,136.48,0,0,0,591,683.57a197,197,0,0,0,53.5-39.72,60.81,60.81,0,0,0,6.19-7.35q3-4.12,5.29-7.8t3.9-6.2c1.07-1.68,1.91-2.53,2.53-2.53q10.56,0,13.77,10.56Q677.55,638.35,673.87,648Z"/></svg>