<svg id="Layer_1" data-name="Layer 1" xmlns="http://www.w3.org/2000/svg" viewBox="0 0 900 900"><defs><style>.cls-1{fill:#fff;}</style></defs><title>cheree logo white</title><rect x="-21.5" y="-21.5" width="943" height="943"/><path class="cls-1" d="M339.53,625.55c-5.93-12.61-17.47-21.08-34.73-21.08-42.25-.21-54.42,55-54.53,86.3.11,28.06,9.53,82.17,49,81.86,13.23,0,23.5-5.4,31-16.1,6.57-9.32,9.95-20.54,10.27-33.78a6.62,6.62,0,0,0-13.23-.21c-.43,23.3-13.45,34.84-23.93,34.84-13-.32-24.78-14.3-24.46-60.36-.11-20.22,9.21-73.8,38-73.59,4.34,0,7.62,1.48,9.85,4.34,2.86,3.92,4.34,9.32,4.34,16.2a65.59,65.59,0,0,1-5.08,24.57,41.58,41.58,0,0,1-7,11.86,6.75,6.75,0,0,0-1.49,4.13c0,.31-.42,2.43,2.44,4.87a7.15,7.15,0,0,0,4.13,1.37c.42,0,2.65.43,5.19-2.22a62.81,62.81,0,0,0,11.43-20.23,65.57,65.57,0,0,0,3.5-21.07c0-.31-.11-2.43-.21-6.35S342.5,631.79,339.53,625.55Z"/><path class="cls-1" d="M386.13,631.26c0-5.73-2.09-9.83-6.19-12.28a12.58,12.58,0,0,0-6.37-1.73,10.07,10.07,0,0,0-10.37,9.37q-4,40.26-3.91,81.25a429.83,429.83,0,0,0,3.64,51.77c.63,5.19,2.27,8.92,4.91,11.28a12.52,12.52,0,0,0,8.46,3.64c5.19,0,9.65-3.37,9.92-8.92s1.09-14.55,2.46-27A312.43,312.43,0,0,1,395.14,700c3.18-13,6.64-19.56,10.37-19.56,1.45,0,2.37,1,2.73,3a35.67,35.67,0,0,1,.54,6.55c0,2.92-.36,8.65-1,17.11-.82,10.28-1.18,21.2-1.18,32.75,0,16.11,3.28,28.39,9.74,37a26,26,0,0,0,3.73,4c4.82,4.09,10,6.09,15.46,6.09a5.49,5.49,0,0,0,5.1-3.27,5,5,0,0,0,.64-2.37,5.34,5.34,0,0,0-2.1-4.09c-6.46-5.1-9.64-15.38-9.64-30.85,0-7,.36-15.37,1.18-25.11.82-10.46,1.18-19.38,1.18-26.66,0-21.38-7-32.11-21.1-32.11q-18.57,0-28.39,49,.14-33,3.55-78.8Z"/><path class="cls-1" d="M505.15,679.85c0-8.65-2.1-15.2-6.37-19.66A21.1,21.1,0,0,0,483,653.46a27.84,27.84,0,0,0-14.83,3.82c-7.83,4.82-13.65,12.92-17.38,24.2A90.82,90.82,0,0,0,446,710.69q0,28,9.19,42.31c6.09,9.55,14.28,14.28,24.38,14.28,9.55,0,16.74-4.27,21.74-12.83a44.6,44.6,0,0,0,5.74-22.74l-.09-3.1a5.22,5.22,0,0,0-5.37-5.18,5.53,5.53,0,0,0-5.46,5.73v1.91c0,6.64-1.18,12.1-3.64,16.56s-5,6.55-8,6.55c-4.82,0-8.46-3.46-11-10.46A66.12,66.12,0,0,1,469.84,725C493.41,715.24,505.15,700.14,505.15,679.85Zm-35.49,33.66c.37-11.65,2.55-21.29,6.55-29,4.37-8.47,8.74-12.74,13.11-12.74q4.9,0,4.91,8.19c0,5.73-2.37,12.28-7.1,19.74C483.22,705.78,477.4,710.33,469.66,713.51Z"/><path class="cls-1" d="M523.53,747.63q0,9.42,3.82,13.65c2.64,2.82,5.55,4.18,8.74,4.18,6.64-.09,10.19-3.09,10.46-9.19.91-19.1,2.28-33.12,4-42.12,6.46-33.21,12.37-49.86,17.92-49.86,2.28,0,4.1.54,5.82.54a5.83,5.83,0,0,0,5.92-5.82,5.26,5.26,0,0,0-3.64-5.28,15,15,0,0,0-6-1.18,20.47,20.47,0,0,0-5.64.82c-8.37,2.27-15.46,15.56-21.2,39.67a139.82,139.82,0,0,0-2.18-19.93c-2.46-11.55-8.37-16.1-14.1-16.1a9.43,9.43,0,0,0-7.47,3.27,8.36,8.36,0,0,0-2,5.74,14.88,14.88,0,0,0,.28,2.82,214.91,214.91,0,0,1,3.91,25.29Q523.54,707.38,523.53,747.63Z"/><path class="cls-1" d="M630.81,723.43a5.54,5.54,0,0,0-5.46,5.73v1.91c0,6.64-1.18,12.1-3.64,16.56s-5,6.55-8,6.55c-4.83,0-8.47-3.46-11-10.46A65.78,65.78,0,0,1,599.06,725c23.56-9.73,35.3-24.83,35.3-45.12,0-8.65-2.09-15.2-6.37-19.66a21.1,21.1,0,0,0-15.83-6.73,27.86,27.86,0,0,0-14.83,3.82c-7.83,4.82-13.65,12.92-17.38,24.2a91.09,91.09,0,0,0-4.73,29.21q0,28,9.19,42.31c6.09,9.55,14.28,14.28,24.38,14.28,9.56,0,16.74-4.27,21.75-12.83a44.7,44.7,0,0,0,5.73-22.74l-.09-3.1A5.22,5.22,0,0,0,630.81,723.43Zm-25.38-38.94c4.36-8.47,8.73-12.74,13.1-12.74q4.9,0,4.91,8.19c0,5.73-2.36,12.28-7.1,19.74-3.91,6.1-9.73,10.65-17.47,13.83C599.24,701.86,601.42,692.22,605.43,684.49Z"/><path class="cls-1" d="M707.88,728.61a5.22,5.22,0,0,0-5.37-5.18,5.54,5.54,0,0,0-5.46,5.73v1.91c0,6.64-1.18,12.1-3.63,16.56s-5,6.55-8,6.55c-4.82,0-8.46-3.46-11-10.46A65.78,65.78,0,0,1,670.76,725c23.57-9.73,35.3-24.83,35.3-45.12,0-8.65-2.09-15.2-6.37-19.66a21.08,21.08,0,0,0-15.83-6.73A27.88,27.88,0,0,0,669,657.28c-7.82,4.82-13.65,12.92-17.38,24.2a91.09,91.09,0,0,0-4.73,29.21c0,18.65,3.1,32.75,9.19,42.31s14.29,14.28,24.39,14.28c9.55,0,16.74-4.27,21.74-12.83A44.7,44.7,0,0,0,708,731.71Zm-30.75-44.12c4.37-8.47,8.73-12.74,13.1-12.74q4.92,0,4.91,8.19c0,5.73-2.36,12.28-7.09,19.74-3.92,6.1-9.74,10.65-17.47,13.83C670.94,701.86,673.13,692.22,677.13,684.49Z"/><path class="cls-1" d="M650.16,462c-5.82-10.16-15.24-1.73-22,4.09.56-1.18,1.09-2.37,1.59-3.6a35.71,35.71,0,0,0,2.34-8.7c5.35-11.57,12.85-22.69,25.87-25.9,5.14-1.26-3.12-16.34-3.84-18a1.43,1.43,0,0,0-1.71-.95,24.48,24.48,0,0,0-4.83,1.8l2.28-3.25c5.69-8,13.06-19.74,14.22-29.71.57-4.83-3.24-11.41-8.34-12.68-1.38-.34-1.79.17-2.6,1.16-3.21,3.93-5.62,10.12-8,15.08-.64.85-1.24,1.71-1.82,2.59,1.51-3.77,2.85-7.54,4.16-11.06,3.05-8.17,2.62-17.11,6.07-25.38,4.22-10.1,12.42-20.54,22-26,3.38-1.93,1.12-5.28-.52-7.25-1.88-2.27-2.65-8.89-7.14-7.73-13.3,3.44-23.11,13-28.54,25.2-.06-.13-.14-.24-.19-.38-1.08-2.6-2.19-5.26-4.84-6.51a2.23,2.23,0,0,0-2.66.8,46.65,46.65,0,0,1-11.3,8.12A93,93,0,0,0,627,314.55c1.2-5.61,4.74-19.28.72-24.54-1.79-2.35-8.26-6.16-11.22-5-1.18.46-1.64,2.08-1.81,3.14a49.12,49.12,0,0,1-5.8,15.9c.44-3.37.94-6.7,1.25-9.81,1.2-12.16,6.37-21.4,11.38-32.17a1.81,1.81,0,0,0-1.58-2.37c-4.77-.34-12.84-7.17-16.74-2.57-1.66,1.94-2.4,5-3.12,7.41-1.72,5.66-4.79,11.16-7.92,16.2a82,82,0,0,0-5.49-27.47c-2.09-5.11-6.41-13.68-10.95-16.83-.57-.4-1.47-1.2-2.28-.79-3.57,1.8-6.8,1.35-10.56.54-1.44-.31-1.87,1.2-1.56,2.29,1.16,4,3.66,7.21,4.7,11.29a41.33,41.33,0,0,1,1.15,7.74,74.48,74.48,0,0,1-14.27-16.82,112.53,112.53,0,0,1-7.74-14.19,58.45,58.45,0,0,1-1-15.49c1.12-26.82,2.11-53.66,3.16-80.49.21-5.26.48-10.52.72-15.69,12.83-3.95,18.61-10.54,18.13-20.49A19.26,19.26,0,0,0,550.46,76c-9.44-1.67-17.83,2.76-21.71,11.45-4,8.92-.85,17.68,9.07,25.25-5.1,9.67-10.38,19.27-15.28,29.06-8.28,16.57-16.3,33.26-24.5,49.87-.37.76-1.34,1.7-2,1.7s-1.46-1.09-1.8-1.88q-16.35-38-32.59-75.95c-2.33-5.45-4.5-11-6.75-16.44h0a12.79,12.79,0,0,0,2.17-.82,23.25,23.25,0,1,0-30.39-5.43c3.94,4.94,9.11,7.73,15.62,8.81Q441,154,439.72,206c-2.73-.84-5.45-1.6-8.12-2.24a1.46,1.46,0,0,0-1.74,1.41c-.06.43-.14.85-.23,1.25q-33.47-47.94-67-95.86-5.48-7.83-10.91-15.64c14.49-11.6,13.68-28.41,7.09-38.38a28,28,0,0,0-50.65,21.81A27.13,27.13,0,0,0,318.4,94.14c7.35,5.61,15.67,6.91,24.72,4.84Q359.77,171.27,376.29,243l-.53.23L288.67,171.6c5.49-14.74,3.71-24.54-5.6-31.41a23.09,23.09,0,0,0-35.33,27,22.88,22.88,0,0,0,9.65,11.23c6.54,3.87,13.46,4.09,20.61,1.61l45,92.61L230.7,249.06c1.47-11.28-2.89-19.51-11.95-23a19.17,19.17,0,0,0-20.75,31c7,7.55,15.42,7.81,27.77.81.49.34,1,.67,1.53,1.06q42.73,33.83,85.42,67.71c-1.57,2.25-3,4.54-2.48,7.16.59,3.31,5.44,6.16,7.73,8.1,1.06.89,2.16,1.76,3.28,2.61.2.65.4,1.3.61,1.94a20.29,20.29,0,0,0,2.05,3.69c.85-.7,1.66-1.4,2.49-2.1a45,45,0,0,0,7.78,3.84c.66.24,1.32.43,2,.65-3.11.78-5.84,2.5-9.33,2.68-2.4.12-6.54.08-8.09,2.44-1.33,2,1.36,7.54,1.82,9.1,1.06,3.65,3.29,8.11,4.72,12.53-3.92.07-7.77.5-11.76.35-6.93-.28-12.14-3.33-18.3-6-1-.45-1.85.33-1.74,1.41.37,3.59-.47,7.7-.76,11.31-.11,1.43-1.22,4.22-.57,5.88,1.27,3.28,5.78,4.76,9.89,5.78.53,8.11,1.54,37.46,9.56,33.45,3.76-1.88,6.73-4.84,10.58-6.59.65-.3,1.34-.49,2-.73-.57,3.11-.75,6.5-1.09,9.52a41.73,41.73,0,0,0-.48,8.31c-11.85-3.19-22.46-9.93-27.19-21.25a1.38,1.38,0,0,0-2.05-.8c-4.48,2.94-9.95,6.18-12.24,11.2a1.85,1.85,0,0,0,.7,2.07.42.42,0,0,0,0,.15c3.67,10.52,18.76,17.23,27.62,22.37,6.15,3.57,12.85,6.62,19.78,7.74a79.32,79.32,0,0,1-10.69.27c-7.95-.39-16.45-2.88-24.29-2.29a1.64,1.64,0,0,0-1.52,2c1.71,5.09,6.22,12.13,10.25,15.66,1.37,1.2,4.87.72,6.38.83,4.34.31,8.72.47,13,1.07a183.28,183.28,0,0,1,31.71,7.18,106.65,106.65,0,0,1,11.59,4.8c-11.74,2.67-22.48,1.9-34.09-2.19a2,2,0,0,0-2.71,2.18c1,4.85,1.47,12.37,5.44,15.91-6.85-1.76-12.55-5.24-18.83-8.46a1.84,1.84,0,0,0-2.35,1.13c-.76,3.38-1.39,6.55-3.87,9.32a1.45,1.45,0,0,0,.09,2.24,130.43,130.43,0,0,0,16.94,10.26,1.77,1.77,0,0,0-1.71,1.6c-.33,5.71,2.46,10.72,3.33,16.26a4.87,4.87,0,0,0,3.92,4.13A63.91,63.91,0,0,0,357,544.13,48.15,48.15,0,0,1,328.1,549c-1.6-.23-3,1.65-1.69,2.85,2.81,2.5,5.23,8.47,8.1,10.34s5.77,1.22,9,1.2a106.53,106.53,0,0,0,16.44-1.37,8.64,8.64,0,0,0,2.26,6.14c2.34,2.69,9.88,2,12.92,1.94a101.34,101.34,0,0,0,13.24-1,76.51,76.51,0,0,0-8.4,4.1c-1.53.87-8.83,4.29-8.16,7.19,1.17,5.1,8.19,9.29,11.39,12.86a1.8,1.8,0,0,0,2.78-.35c5.68-8,21.86-11.07,30.9-12.5a74.57,74.57,0,0,1,22.05-.27,40.48,40.48,0,0,1-6.59,4.21c-3.77,1.89-7.83,2.12-11.6,3.87-1,.48-1.88,1.8-.71,2.67,3.08,2.31,5.55,4.46,6.53,8.33.22.89,1.41,1,2.09,1.21,5.36,1.35,14.66-1,19.88-2.8a81.93,81.93,0,0,0,24.34-13.88c-1.76,5.67-3.89,11.59-7,16.61-1.31,2.09-3.17,4.69-3.55,7.21-.89,6,9.54,7.57,12.93,10.94a1.82,1.82,0,0,0,2.83-.36c4.83-10.85,8.41-20.81,16.79-29.69,2.16-2.28,4.34-4.84,6.59-7.39a49.08,49.08,0,0,1-8.19,14.81,4.88,4.88,0,0,0-1.24,2.75c3.66,2.27,7.41,4.93,11.65,5.78,6.52-.9,14.23-12.09,17.61-16.57a94.25,94.25,0,0,0,10-17.66A46.67,46.67,0,0,1,532.57,584a2.23,2.23,0,0,0,1.15,2.52c2.68,1.18,5.41.27,8.09-.62,3.42-1.14,6.31.19,9.61,0,3.56-.2,2-5.27,1.17-7-3.75-7.78-7.31-15.33-4.46-24a36,36,0,0,1,16.42,11.29c3.7,4.36,4.49,10,7.5,14.59,4.55,7,10,.64,14.05-4,6.54-7.43-2.17-14.65-10.14-19.56,12.55,2.06,25.44-1.05,38.62-5.44,1.33-.44.92-2.23.22-3-2.18-2.37-4.86-7.85-8.28-8.7-.06,0-.14,0-.2,0a29.55,29.55,0,0,0,8.46-7.1c4.66-5.88,9.94-11.94,13-18.86,1.59-3.61-3.74-6.59-6-8.66,2.19-3.19,4.2-6.5,6.15-9.87,5.17-8.88,8.28-17.4,20.1-18.21C657.94,476.77,653.56,468,650.16,462Zm-57.51,8.92q-3.89,11.32-14.07,23a113.71,113.71,0,0,1-25.38,21.17,149.6,149.6,0,0,1-34.59,15.68,136.28,136.28,0,0,1-41.39,6.15q-26.85,0-46.56-6.47t-33.31-18.27A87.32,87.32,0,0,1,375.85,484,123.35,123.35,0,0,1,365,447.64a102.43,102.43,0,0,1,.65-36.21,132.79,132.79,0,0,1,12.45-35.73,152.56,152.56,0,0,1,53.51-58.52,157.55,157.55,0,0,1,38.31-17.63,147.48,147.48,0,0,1,43.81-6.46,88.7,88.7,0,0,1,22.48,2.75A55.5,55.5,0,0,1,555,304.57a51.7,51.7,0,0,1,13.9,15.35q5.65,9.39,7.92,23a44.63,44.63,0,0,1-1,19.4A49,49,0,0,1,568.4,378a38.18,38.18,0,0,1-11,10.35,23,23,0,0,1-12,3.72,33.49,33.49,0,0,1-10.67-2.11,61.61,61.61,0,0,1-11.8-5.49,47.51,47.51,0,0,1-9.86-7.76,16.38,16.38,0,0,1-4.85-9.22,6.3,6.3,0,0,1,2.26-6.3,75.1,75.1,0,0,1,7.44-5.34h-.33A46,46,0,0,0,529,346.28q4.84-5.65,3.56-13.75Q530.25,319,510.84,319a65.57,65.57,0,0,0-29.1,6.31,78.39,78.39,0,0,0-22.95,17,106.3,106.3,0,0,0-17.14,24.58,150.64,150.64,0,0,0-16.16,58.52,130.34,130.34,0,0,0,1,27.81,63.29,63.29,0,0,0,6.79,21A58.23,58.23,0,0,0,446.66,491a64.32,64.32,0,0,0,19.24,11.31,68.17,68.17,0,0,0,24.57,4.21A96.1,96.1,0,0,0,534.29,496,138.84,138.84,0,0,0,572,468a43.31,43.31,0,0,0,4.37-5.18c1.4-1.94,2.64-3.76,3.72-5.49s2-3.18,2.75-4.37,1.34-1.77,1.77-1.77q7.44,0,9.7,7.43A23.19,23.19,0,0,1,592.65,470.92Z"/><path class="cls-1" d="M528.79,832.64a5.64,5.64,0,0,0,1.77,1.8,3.89,3.89,0,0,0,2.13.67,3.5,3.5,0,0,0,2.83-1.31,5.28,5.28,0,0,0,1.07-3.46,22.49,22.49,0,0,0-.9-6,20.66,20.66,0,0,0-2.33-5.52,7.26,7.26,0,0,0-2-2.21,4.32,4.32,0,0,0-2.33-.86,3.52,3.52,0,0,0-3.07,1.73,5.37,5.37,0,0,0-.87,3.07,20.61,20.61,0,0,0,1.06,6A27.14,27.14,0,0,0,528.79,832.64Z"/><path class="cls-1" d="M352.16,855H606.08V797.29H352.16Zm164.61-39.2a16,16,0,0,1,7.46-5.49,19.33,19.33,0,0,1,7-1.2,16.54,16.54,0,0,1,10.36,3.39,17.41,17.41,0,0,1,4.87,6,16.47,16.47,0,0,1,1.82,7.38,14.79,14.79,0,0,1-3.59,9.74,16.9,16.9,0,0,1-8,5.23,19.69,19.69,0,0,1-6.07,1,18.19,18.19,0,0,1-7.64-1.66,15.37,15.37,0,0,1-6.9-6.07,16.15,16.15,0,0,1-2.42-8.65A15.87,15.87,0,0,1,516.77,815.8ZM481,810.73a2,2,0,0,1,1.15-.77,19.72,19.72,0,0,1,3.48-.2h11.86q3.6,0,5.25-.15a17.43,17.43,0,0,0,3.22-.61,2.68,2.68,0,0,1,.76-.14,2.6,2.6,0,0,1,2.12,1.29,8.38,8.38,0,0,1,1.53,5.07,3.9,3.9,0,0,1-.64,2.37,2,2,0,0,1-1.74.87,2,2,0,0,1-1.19-.32,5.89,5.89,0,0,1-1.14-1.39,4.94,4.94,0,0,0-2.57-2.07,18,18,0,0,0-5.11-.52c-1.77,0-2.85.32-3.23,1a3.1,3.1,0,0,0-.36,1.36c0,.57-.06,2-.06,4.36,0,.92.16,1.5.46,1.72a5.27,5.27,0,0,0,2.43.33,2,2,0,0,0,1.4-.4,2.25,2.25,0,0,0,.56-1.44,10.4,10.4,0,0,1,.33-1.84,2,2,0,0,1,.64-.86,1.67,1.67,0,0,1,1.13-.42,2,2,0,0,1,1.61.9,6.28,6.28,0,0,1,.82,2.37,18.48,18.48,0,0,1,.34,3.54,13.65,13.65,0,0,1-1.14,6A2,2,0,0,1,501,832a1.26,1.26,0,0,1-1.08-.4,3.88,3.88,0,0,1-.46-1.67,2.73,2.73,0,0,0-3.05-2.61A1.51,1.51,0,0,0,495,828a5.41,5.41,0,0,0-.38,2.43c0,.73,0,1.66.15,2.81a15.77,15.77,0,0,0,.31,2.27,1.47,1.47,0,0,0,1.15,1,13.76,13.76,0,0,0,3.19.26,11.84,11.84,0,0,0,5.22-.89,6.61,6.61,0,0,0,2.86-3.21,6,6,0,0,1,1.16-1.8,2,2,0,0,1,1.35-.47,1.9,1.9,0,0,1,1.6.85,3.35,3.35,0,0,1,.64,2.11,11,11,0,0,1-.72,3.46,17,17,0,0,1-1.75,3.69,4.8,4.8,0,0,1-.88,1.05,1.36,1.36,0,0,1-.87.26,8.3,8.3,0,0,1-1.27-.13,26.16,26.16,0,0,0-3.95-.35H483.23a2.78,2.78,0,0,1-1.82-.52,1.75,1.75,0,0,1-.65-1.46,1.37,1.37,0,0,1,.28-1,4.23,4.23,0,0,1,1.26-.76,2.47,2.47,0,0,0,1-.74,3.38,3.38,0,0,0,.52-1.3,45.69,45.69,0,0,0,.76-9.39q0-8.9-1.11-11.23a1.68,1.68,0,0,0-.5-.65,5.11,5.11,0,0,0-1.16-.44,1.67,1.67,0,0,1-1.31-1.75A2.05,2.05,0,0,1,481,810.73Zm-34.7,14.07q-.11-5.53-.1-6.32a6,6,0,0,0-.33-2.62,4.59,4.59,0,0,0-1.88-1.4,1.54,1.54,0,0,1-1-1.45q0-2.32,4.53-3.23a27.44,27.44,0,0,1,5.39-.53q7.2,0,7.2,3a2.16,2.16,0,0,1-.37,1.31,4.65,4.65,0,0,1-1.4,1.13,2.47,2.47,0,0,0-1.15,1.45,17.45,17.45,0,0,0-.24,3.65q0,1.62.6,2a2.1,2.1,0,0,0,1.05.28c.47,0,1.57.05,3.31.05a9.84,9.84,0,0,0,3-.26c.38-.17.57-.59.57-1.27a22.32,22.32,0,0,0-.27-4.24,2.34,2.34,0,0,0-1.09-1.64,4.87,4.87,0,0,1-1.34-1,1.7,1.7,0,0,1-.32-1.07,2.49,2.49,0,0,1,.71-1.72,3.58,3.58,0,0,1,1.87-1,26.05,26.05,0,0,1,6-.58,18.9,18.9,0,0,1,6.26.77c1.35.52,2,1.32,2,2.42a2.21,2.21,0,0,1-1.43,2.07,3.11,3.11,0,0,0-1.18.8,3.63,3.63,0,0,0-.44,1.42c-.06.38-.13,2.09-.23,5.12s-.14,5.44-.14,7.22a30,30,0,0,0,.35,5.95,2.13,2.13,0,0,0,.42.93,9.1,9.1,0,0,0,1.45.92,1.6,1.6,0,0,1,.88,1.48c0,1.17-.7,2-2.09,2.55a20.74,20.74,0,0,1-6.77.79,16.93,16.93,0,0,1-6.07-.81,2.42,2.42,0,0,1-1.78-2.28,2.27,2.27,0,0,1,1.36-2,2.59,2.59,0,0,0,.91-.74,4.59,4.59,0,0,0,.48-1.36,23.75,23.75,0,0,0,.41-4.76c0-1-.14-1.57-.42-1.8a4.35,4.35,0,0,0-2.23-.34,17.84,17.84,0,0,0-5.26.46c-.31.12-.5.48-.58,1.08a23,23,0,0,0-.14,2.73,7.31,7.31,0,0,0,.74,3.78,4.27,4.27,0,0,0,1.2,1,1.92,1.92,0,0,1,1,1.82c0,1.08-.75,1.9-2.24,2.47a18.66,18.66,0,0,1-6.39.85,20.4,20.4,0,0,1-6.18-.78,3.84,3.84,0,0,1-1.63-1,2,2,0,0,1-.59-1.4,1.75,1.75,0,0,1,.37-1.18,6.5,6.5,0,0,1,1.62-1.06,2,2,0,0,0,.91-.83,5.2,5.2,0,0,0,.4-1.71,57.77,57.77,0,0,0,.35-7.06C446.29,826.18,446.28,825.54,446.27,824.8Zm-36.71-10.09a12.88,12.88,0,0,1,1.73-3.18c1.17-1.57,2.32-2.35,3.46-2.35a4.91,4.91,0,0,1,1.06.14c.83.17,1.51.28,2,.34a14.36,14.36,0,0,0,1.84.1h12.16a15.56,15.56,0,0,0,3.57-.53,4.55,4.55,0,0,1,1.22-.19q1.88,0,3.64,2.77a10.46,10.46,0,0,1,1.76,5.7,3.42,3.42,0,0,1-1.22,2.93,3.57,3.57,0,0,1-2.21.69,3.45,3.45,0,0,1-2.13-.68,7,7,0,0,1-1.77-2.25,9.15,9.15,0,0,0-1.2-1.87,1.47,1.47,0,0,0-1.06-.44,1.28,1.28,0,0,0-1.23.72,5.57,5.57,0,0,0-.37,2.35v12.92a7.29,7.29,0,0,0,.42,2.89,2.82,2.82,0,0,0,1.57,1.38,5.32,5.32,0,0,1,1.69,1,1.83,1.83,0,0,1,.45,1.31c0,1.11-.75,1.93-2.25,2.47a22.18,22.18,0,0,1-6.91.8,28.27,28.27,0,0,1-8.49-.94c-1.55-.52-2.33-1.37-2.33-2.54a1.68,1.68,0,0,1,.83-1.48c.14-.07.69-.26,1.64-.55a1.78,1.78,0,0,0,1.21-1,9.58,9.58,0,0,0,.55-2.74c.12-1.2.23-3.15.34-5.83s.16-5,.16-7a9.32,9.32,0,0,0-.32-3c-.22-.59-.57-.88-1.06-.88s-1.19.43-1.76,1.29a13.67,13.67,0,0,1-2.53,3.12,3.81,3.81,0,0,1-2.29.9,2.57,2.57,0,0,1-2-.94,3.51,3.51,0,0,1-.81-2.39A9,9,0,0,1,409.56,814.71Z"/></svg>