<svg id="Layer_1" data-name="Layer 1" xmlns="http://www.w3.org/2000/svg" viewBox="0 0 900 578"><defs><style>.cls-1{fill:#fff;}</style></defs><title>cheree logo White</title><rect x="-18" y="-25" width="936" height="628"/><path class="cls-1" d="M539.37,455.2c-7.75-6.11-11.57-18.44-11.57-37,0-8.4.44-18.44,1.42-30.11,1-12.55,1.42-23.24,1.42-32,0-25.64-8.4-38.51-25.31-38.51q-22.26,0-34,58.8.16-39.6,4.26-94.48l.21-1.63c0-6.88-2.51-11.79-7.42-14.73a15.12,15.12,0,0,0-7.63-2.07,12.07,12.07,0,0,0-12.44,11.23q-4.74,48.28-4.69,97.43,0,26.19,4.36,62.08c.77,6.22,2.73,10.69,5.89,13.53s6.66,4.36,10.15,4.36c6.22,0,11.57-4,11.89-10.69s1.31-17.46,2.95-32.4c2.07-18.12,4.58-33.61,7.74-46.37,3.82-15.6,8-23.46,12.44-23.46q2.63,0,3.27,3.6a42,42,0,0,1,.66,7.86c0,3.49-.44,10.36-1.2,20.51-1,12.33-1.42,25.42-1.42,39.27,0,19.31,3.93,34,11.67,44.3a31.71,31.71,0,0,0,4.48,4.8c5.78,4.91,12,7.31,18.55,7.31,2.72,0,4.69-1.31,6.1-3.93a5.79,5.79,0,0,0,.77-2.84A6.38,6.38,0,0,0,539.37,455.2Z"/><path class="cls-1" d="M613.88,428a53.65,53.65,0,0,0,6.87-27.28l-.11-3.7a6.25,6.25,0,0,0-6.43-6.22,6.64,6.64,0,0,0-6.55,6.87V400c0,8-1.42,14.51-4.36,19.86s-6,7.85-9.61,7.85c-5.78,0-10.14-4.14-13.2-12.54a79.19,79.19,0,0,1-4.36-22.48c28.26-11.67,42.33-29.78,42.33-54.11,0-10.37-2.51-18.22-7.64-23.57a25.31,25.31,0,0,0-19-8.07,33.49,33.49,0,0,0-17.78,4.58c-9.39,5.78-16.37,15.49-20.84,29a109,109,0,0,0-5.67,35q0,33.56,11,50.73c7.31,11.46,17.13,17.13,29.24,17.13C599.26,443.41,607.88,438.28,613.88,428Zm-30.11-83.9c5.23-10.15,10.47-15.27,15.71-15.27q5.88,0,5.89,9.82c0,6.87-2.84,14.72-8.51,23.67-4.69,7.31-11.68,12.77-21,16.58C576.35,365,579,353.4,583.77,344.13Z"/><path class="cls-1" d="M638.86,355.7q1.64,15.87,1.63,64.15,0,11.28,4.59,16.36c3.16,3.38,6.65,5,10.47,5,8-.11,12.22-3.71,12.55-11,1.09-22.91,2.72-39.71,4.8-50.51,7.74-39.82,14.83-59.79,21.49-59.79,2.73,0,4.91.66,7,.66a7,7,0,0,0,7.09-7,6.33,6.33,0,0,0-4.36-6.33,18.06,18.06,0,0,0-7.2-1.41,24.63,24.63,0,0,0-6.77,1c-10,2.73-18.54,18.65-25.42,47.57a167.8,167.8,0,0,0-2.61-23.9c-3-13.85-10-19.31-16.92-19.31a11.26,11.26,0,0,0-8.94,3.93,10,10,0,0,0-2.4,6.87,18.59,18.59,0,0,0,.33,3.39A255.7,255.7,0,0,1,638.86,355.7Z"/><path class="cls-1" d="M702.46,375.55c0,22.37,3.71,39.28,11,50.73s17.13,17.13,29.24,17.13c11.45,0,20.07-5.13,26.07-15.38a53.65,53.65,0,0,0,6.87-27.28l-.1-3.7a6.26,6.26,0,0,0-6.44-6.22,6.64,6.64,0,0,0-6.55,6.87V400c0,8-1.42,14.51-4.36,19.86s-6,7.85-9.6,7.85c-5.78,0-10.15-4.14-13.2-12.54A79.17,79.17,0,0,1,731,392.68c28.26-11.67,42.33-29.78,42.33-54.11,0-10.37-2.51-18.22-7.63-23.57a25.34,25.34,0,0,0-19-8.07A33.49,33.49,0,0,0,729,311.51c-9.38,5.78-16.37,15.49-20.84,29A109,109,0,0,0,702.46,375.55Zm36.22-31.42c5.24-10.15,10.47-15.27,15.71-15.27q5.9,0,5.89,9.82c0,6.87-2.84,14.72-8.51,23.67-4.69,7.31-11.67,12.77-20.95,16.58C731.26,365,733.88,353.4,738.68,344.13Z"/><path class="cls-1" d="M828.68,443.41c11.46,0,20.08-5.13,26.08-15.38a53.65,53.65,0,0,0,6.87-27.28l-.11-3.7a6.26,6.26,0,0,0-6.44-6.22,6.63,6.63,0,0,0-6.54,6.87V400c0,8-1.42,14.51-4.37,19.86s-6,7.85-9.6,7.85c-5.78,0-10.14-4.14-13.2-12.54A78.84,78.84,0,0,1,817,392.68c28.26-11.67,42.33-29.78,42.33-54.11,0-10.37-2.51-18.22-7.64-23.57a25.32,25.32,0,0,0-19-8.07,33.46,33.46,0,0,0-17.78,4.58c-9.39,5.78-16.37,15.49-20.84,29a109,109,0,0,0-5.68,35c0,22.37,3.71,39.28,11,50.73S816.57,443.41,828.68,443.41Zm-4-99.28c5.23-10.15,10.47-15.27,15.71-15.27q5.88,0,5.89,9.82c0,6.87-2.84,14.72-8.51,23.67-4.69,7.31-11.68,12.77-21,16.58C817.23,365,819.85,353.4,824.65,344.13Z"/><path class="cls-1" d="M426.31,266.57c-11,2.83-19.08,10.71-23.56,20.81-.05-.11-.12-.21-.16-.32-.9-2.15-1.81-4.34-4-5.38a1.87,1.87,0,0,0-2.2.66,38.4,38.4,0,0,1-9.33,6.71,76.59,76.59,0,0,0,5.55-15.83c1-4.64,3.91-15.93.6-20.27-1.48-1.94-6.82-5.09-9.27-4.13-1,.37-1.35,1.71-1.49,2.58a40.51,40.51,0,0,1-4.79,13.13c.36-2.78.78-5.53,1-8.1,1-10,5.26-17.67,9.39-26.56a1.49,1.49,0,0,0-1.3-2c-3.94-.28-10.6-5.92-13.82-2.12-1.37,1.6-2,4.16-2.57,6.12a58.87,58.87,0,0,1-6.55,13.38,67.63,67.63,0,0,0-4.53-22.69c-1.73-4.21-5.29-11.29-9-13.89-.47-.34-1.21-1-1.89-.66-2.94,1.49-5.61,1.12-8.72.45-1.18-.25-1.54,1-1.28,1.89.95,3.3,3,6,3.88,9.32a34.6,34.6,0,0,1,.95,6.39,60.5,60.5,0,0,1-7.83-8.24,6.06,6.06,0,0,0,0-.75,5.63,5.63,0,0,0-.85-3c-5-6.84-5.62-14.62-5.28-22.71.93-22.22,1.74-44.44,2.62-66.66.17-4.35.4-8.71.59-13,10.63-3.27,15.42-8.73,15-17a16.14,16.14,0,0,0-31-5.66c-3.29,7.38-.7,14.64,7.51,20.91-4.22,8-8.59,16-12.65,24.07-6.85,13.71-13.5,27.54-20.28,41.29-.31.63-1.11,1.41-1.68,1.4s-1.21-.9-1.49-1.55q-13.53-31.42-27-62.89c-1.92-4.51-3.72-9.08-5.58-13.61h0a10.81,10.81,0,0,0,1.8-.69A19.25,19.25,0,1,0,232,93.57,19.94,19.94,0,0,0,245,100.88q-1,42.3-2.07,84.34a109.14,109.14,0,0,0-11.63-3.48,1.05,1.05,0,0,0-.81.12Q204.76,145,179,108.25l-9-13c12-9.61,11.32-23.53,5.86-31.78a23.18,23.18,0,0,0-41.93,18.06,22.45,22.45,0,0,0,8.44,13.07c6.1,4.64,13,5.72,20.48,4l27.47,119.29-.45.2-72.11-59.35c4.54-12.21,3.07-20.32-4.63-26a19.12,19.12,0,0,0-29.26,22.39,18.92,18.92,0,0,0,8,9.3c5.41,3.21,11.14,3.38,17.06,1.33l37.27,76.69L69.76,222.94c1.21-9.35-2.4-16.16-9.9-19a15.87,15.87,0,0,0-17.18,25.72c5.81,6.25,12.77,6.46,23,.66.41.28.86.56,1.27.88q33,26.15,66,52.32c-1.22,1.78-2.26,3.6-1.88,5.68.49,2.74,4.49,5.09,6.38,6.69a57.45,57.45,0,0,0,6.95,5.06c.28.91.56,1.82.85,2.72a14.85,14.85,0,0,0,1.6,2.89,11.66,11.66,0,0,1-2.1.32c-2,.11-5.4.07-6.67,2-1.1,1.66,1.12,6.23,1.5,7.52.87,3,2.72,6.7,3.89,10.35-3.23.06-6.41.41-9.7.28-5.72-.23-10-2.75-15.12-5-.86-.37-1.52.28-1.43,1.17.3,3-.39,6.36-.63,9.34-.09,1.18-1,3.48-.47,4.85,1,2.71,4.77,3.93,8.17,4.78.43,6.69,1.26,30.93,7.89,27.62,3.1-1.55,5.56-4,8.73-5.45.54-.24,1.11-.39,1.67-.59-.48,2.56-.62,5.36-.9,7.85a34,34,0,0,0-.4,6.86c-9.78-2.63-18.55-8.19-22.45-17.54a1.14,1.14,0,0,0-1.69-.66c-3.7,2.42-8.22,5.1-10.11,9.25a1.5,1.5,0,0,0,.58,1.7.5.5,0,0,0,0,.13c3,8.69,15.49,14.22,22.8,18.47,5.08,2.95,10.62,5.46,16.34,6.39a64.91,64.91,0,0,1-8.83.22c-6.56-.32-13.58-2.37-20-1.88a1.34,1.34,0,0,0-1.26,1.61,35,35,0,0,0,8.46,12.93c1.14,1,4,.6,5.27.69,3.59.26,7.2.39,10.76.88a152.38,152.38,0,0,1,26.18,5.93,89,89,0,0,1,9.58,4,48.74,48.74,0,0,1-28.16-1.81,1.66,1.66,0,0,0-2.23,1.79c.85,4,1.21,10.22,4.49,13.14-5.65-1.45-10.36-4.32-15.55-7a1.52,1.52,0,0,0-1.94.94c-.63,2.8-1.15,5.41-3.19,7.7a1.18,1.18,0,0,0,.07,1.84,106.93,106.93,0,0,0,14,8.48,1.47,1.47,0,0,0-1.42,1.32c-.27,4.71,2,8.85,2.75,13.42a4,4,0,0,0,3.24,3.42,52.93,52.93,0,0,0,20.71-1,39.7,39.7,0,0,1-23.84,4.05c-1.32-.19-2.5,1.37-1.39,2.36,2.31,2.07,4.31,7,6.69,8.54s4.76,1,7.41,1a88.23,88.23,0,0,0,13.58-1.13,7.09,7.09,0,0,0,1.86,5.07c1.94,2.22,8.16,1.62,10.67,1.6a83.78,83.78,0,0,0,10.93-.85,64.12,64.12,0,0,0-6.93,3.38c-1.27.73-7.3,3.55-6.74,5.94,1,4.21,6.76,7.67,9.4,10.62a1.49,1.49,0,0,0,2.3-.29c4.69-6.64,18-9.14,25.51-10.32a61.54,61.54,0,0,1,18.21-.22,34,34,0,0,1-5.44,3.48c-3.11,1.56-6.47,1.74-9.58,3.19-.84.39-1.55,1.49-.59,2.21,2.55,1.9,4.59,3.68,5.39,6.87.19.73,1.18.86,1.73,1,4.42,1.12,12.11-.84,16.42-2.31a68,68,0,0,0,20.1-11.46,58.45,58.45,0,0,1-5.81,13.71c-1.08,1.73-2.61,3.87-2.93,6-.74,4.92,7.88,6.25,10.68,9a1.49,1.49,0,0,0,2.33-.3c4-8.95,6.95-17.18,13.87-24.51,1.78-1.89,3.58-4,5.44-6.11a40.44,40.44,0,0,1-6.76,12.23,4,4,0,0,0-1,2.28c3,1.87,6.12,4.07,9.63,4.77,5.37-.74,11.74-10,14.53-13.69a77.06,77.06,0,0,0,8.3-14.58,38.55,38.55,0,0,1,1.06,11.45,1.83,1.83,0,0,0,.94,2.08c2.22,1,4.48.22,6.69-.51,2.82-.95,5.21.16,7.94,0,2.93-.17,1.64-4.36,1-5.77-3.09-6.43-6-12.66-3.68-19.8A29.7,29.7,0,0,1,341,481.07c3.06,3.6,3.71,8.24,6.2,12.05,3.75,5.76,8.24.53,11.6-3.29,5.4-6.14-1.79-12.1-8.37-16.16,10.36,1.71,21-.86,31.89-4.49,1.1-.37.75-1.84.18-2.47-1.8-2-4-6.49-6.84-7.19l-.16,0a24.61,24.61,0,0,0,7-5.86c3.85-4.86,8.21-9.87,10.72-15.58,1.3-3-3.1-5.44-5-7.15,1.8-2.63,3.46-5.37,5.07-8.15,4.27-7.33,6.84-14.37,16.6-15,8.25-.56,4.63-7.84,1.82-12.75-4.8-8.4-12.58-1.44-18.2,3.37q.69-1.45,1.32-3a29.18,29.18,0,0,0,1.92-7.18c4.42-9.56,10.61-18.74,21.36-21.39,4.25-1-2.57-13.49-3.17-14.87a1.18,1.18,0,0,0-1.41-.79,20.72,20.72,0,0,0-4,1.49l1.89-2.68c4.7-6.62,10.78-16.3,11.74-24.54.47-4-2.67-9.42-6.89-10.47-1.13-.28-1.47.14-2.14,1-2.65,3.25-4.64,8.36-6.64,12.46-.53.69-1,1.41-1.51,2.13,1.25-3.11,2.36-6.22,3.44-9.13,2.51-6.75,2.17-14.13,5-21,3.49-8.34,10.26-17,18.18-21.47,2.79-1.59.92-4.36-.44-6C430.65,271.08,430,265.6,426.31,266.57Zm-279,39.82,3-2.51.54.22c.55.2,1.09.36,1.63.54C150.69,305.08,149.08,305.88,147.31,306.39Zm216.35,95.94q-3.21,9.35-11.62,19a93.7,93.7,0,0,1-21,17.48,123.82,123.82,0,0,1-28.57,13,112.61,112.61,0,0,1-34.17,5.07q-22.17,0-38.45-5.33a78.87,78.87,0,0,1-27.5-15.09,72.17,72.17,0,0,1-17.75-23.23,101.75,101.75,0,0,1-9-30,84.56,84.56,0,0,1,.54-29.9,109.42,109.42,0,0,1,10.28-29.51,126.17,126.17,0,0,1,44.18-48.32,129.91,129.91,0,0,1,31.64-14.55,121.39,121.39,0,0,1,36.17-5.34,73.28,73.28,0,0,1,18.56,2.27A45.73,45.73,0,0,1,332.56,265,42.81,42.81,0,0,1,344,277.65a53.41,53.41,0,0,1,6.53,19,37,37,0,0,1-.79,16,40.58,40.58,0,0,1-6.15,12.95,31.51,31.51,0,0,1-9.07,8.55,19.16,19.16,0,0,1-9.88,3.07,27.74,27.74,0,0,1-8.81-1.74,50.75,50.75,0,0,1-9.75-4.54A39.08,39.08,0,0,1,298,324.5a13.49,13.49,0,0,1-4-7.6,5.21,5.21,0,0,1,1.86-5.21,63.37,63.37,0,0,1,6.15-4.41h-.27a37.62,37.62,0,0,0,9.34-7.87A13.37,13.37,0,0,0,314,288.06q-1.87-11.21-17.89-11.21a54,54,0,0,0-24,5.21,64.49,64.49,0,0,0-18.95,14A87.63,87.63,0,0,0,239,316.36a122.41,122.41,0,0,0-9.21,23.76,123.75,123.75,0,0,0-4.14,24.57,107.73,107.73,0,0,0,.8,23A52.43,52.43,0,0,0,232,405a48,48,0,0,0,11.09,13.88A52.83,52.83,0,0,0,259,428.23a56.53,56.53,0,0,0,20.29,3.47A79.3,79.3,0,0,0,315.47,423a114.52,114.52,0,0,0,31.1-23.09,35.66,35.66,0,0,0,3.61-4.28q1.72-2.4,3.07-4.53c.88-1.43,1.64-2.63,2.27-3.61s1.11-1.46,1.46-1.46q6.15,0,8,6.14A19.1,19.1,0,0,1,363.66,402.33Z"/><path class="cls-1" d="M778.67,491.5h3.1c1.31,0,2-.61,2-1.81a3.89,3.89,0,0,0-1-2.71,3.24,3.24,0,0,0-2.49-1,3.15,3.15,0,0,0-2.7,1.35,4.25,4.25,0,0,0-.92,2.55,1.6,1.6,0,0,0,.44,1.29A2.46,2.46,0,0,0,778.67,491.5Z"/><path class="cls-1" d="M813.19,501.78c.63,1.68,1.66,2.52,3.1,2.52,1.82,0,2.73-1.15,2.73-3.47a28.83,28.83,0,0,0-.69-5.86,24.34,24.34,0,0,0-1.67-5.34,3.25,3.25,0,0,0-2.83-2.15,2.65,2.65,0,0,0-2.16,1,4,4,0,0,0-.82,2.66,25.15,25.15,0,0,0,.69,5A36.9,36.9,0,0,0,813.19,501.78Z"/><path class="cls-1" d="M594.05,524.87H859.56V456.75H632.48Zm208.51-39.64a20.38,20.38,0,0,1,13.73-4.85,16.9,16.9,0,0,1,9.85,2.92,15.6,15.6,0,0,1,4.89,5.43,15.1,15.1,0,0,1,1.9,7.31q0,6.66-6.11,11.33a21.42,21.42,0,0,1-13.36,4.46q-7.34,0-11.88-4.18a13.64,13.64,0,0,1-4.42-10.56A14.88,14.88,0,0,1,802.56,485.23Zm-35.62,1.82a16.49,16.49,0,0,1,6.88-5.32,17.31,17.31,0,0,1,6.79-1.32,15.21,15.21,0,0,1,9.91,3.32,13.16,13.16,0,0,1,3.32,3.93,10.31,10.31,0,0,1,1.44,5,5.92,5.92,0,0,1-.82,3.27,2.49,2.49,0,0,1-2.15,1.27H777.87c-.63,0-1,.28-1,.83a4.93,4.93,0,0,0,2.17,3.76,7.2,7.2,0,0,0,4.65,1.77A10.93,10.93,0,0,0,787,503a10.73,10.73,0,0,0,3-1.4,3.29,3.29,0,0,1,1.66-.74,2.11,2.11,0,0,1,1.57,1,3.24,3.24,0,0,1,.76,2q0,2.22-2.76,4.27a18.27,18.27,0,0,1-11.27,3.66,16,16,0,0,1-10.81-3.75,15.38,15.38,0,0,1-3.5-4.45,15.57,15.57,0,0,1-1.81-7.31A14.89,14.89,0,0,1,766.94,487.05Zm-42.55-7.34a3.27,3.27,0,0,0-.45-1.4,3.53,3.53,0,0,0-1.21-.91c-1.27-.65-1.91-1.41-1.91-2.27a2.88,2.88,0,0,1,1.45-2.49,21.35,21.35,0,0,1,5.52-2.05,34.78,34.78,0,0,1,8.82-1.54c1.18,0,1.76.51,1.72,1.54l-.4,12.86q-.06,2.31,1.41,2.31.74,0,1.44-1a9.23,9.23,0,0,1,8-4.33,10.33,10.33,0,0,1,7.77,3,7.5,7.5,0,0,1,1.83,3.13,20.47,20.47,0,0,1,.6,5.19l.28,11.09a5,5,0,0,0,.38,2.12,6.16,6.16,0,0,0,1.64,1.69,2.07,2.07,0,0,1,.89,1.68q0,3.31-10,3.32-8.9,0-8.9-3.1a1.7,1.7,0,0,1,.15-.8q.15-.27,1.08-1.47c.86-1.13,1.29-3.94,1.29-8.45a16.85,16.85,0,0,0-.77-6,3.65,3.65,0,0,0-3.63-2.55,3.08,3.08,0,0,0-2.76,1.35,7.28,7.28,0,0,0-.64,3.68v5.93a36,36,0,0,0,.37,4.45,7.21,7.21,0,0,0,1.41,1.94,2.16,2.16,0,0,1,.58,1.5q0,3.47-9,3.47-10.56,0-10.56-3.59a2.05,2.05,0,0,1,.34-1.28,8.47,8.47,0,0,1,1.66-1.36c.77-.56,1.31-2,1.61-4.47a114.87,114.87,0,0,0,.44-12.05A77,77,0,0,0,724.39,479.71Zm-47.51-4a17,17,0,0,1,2.31-4.22c1.55-2.09,3.09-3.14,4.6-3.14a6.54,6.54,0,0,1,1.41.19c1.11.22,2,.38,2.72.46a22,22,0,0,0,2.44.12h16.18a19.76,19.76,0,0,0,4.76-.7,6.23,6.23,0,0,1,1.63-.25q2.49,0,4.84,3.69a14,14,0,0,1,2.35,7.58,4.59,4.59,0,0,1-1.63,3.9,4.8,4.8,0,0,1-3,.92,4.51,4.51,0,0,1-2.82-.91,9.54,9.54,0,0,1-2.37-3,12.08,12.08,0,0,0-1.59-2.49,2,2,0,0,0-1.42-.58,1.69,1.69,0,0,0-1.62.95,7.24,7.24,0,0,0-.5,3.13v17.2a9.75,9.75,0,0,0,.56,3.84,3.72,3.72,0,0,0,2.08,1.84,7,7,0,0,1,2.26,1.34,2.4,2.4,0,0,1,.6,1.73q0,2.21-3,3.29a29.39,29.39,0,0,1-9.2,1.07q-7.62,0-11.3-1.26-3.11-1-3.1-3.38a2.22,2.22,0,0,1,1.1-2,21.15,21.15,0,0,1,2.18-.74A2.39,2.39,0,0,0,689,503a13.55,13.55,0,0,0,.72-3.65c.16-1.6.32-4.18.46-7.75s.21-6.67.21-9.29a12.46,12.46,0,0,0-.43-3.93,1.48,1.48,0,0,0-1.41-1.17c-.8,0-1.57.57-2.33,1.72a17.75,17.75,0,0,1-3.38,4.14,5,5,0,0,1-3,1.2A3.43,3.43,0,0,1,677.1,483a4.68,4.68,0,0,1-1.08-3.18A12.05,12.05,0,0,1,676.88,475.67Z"/></svg>